<svg width="47" height="48" viewBox="0 0 47 48" fill="none" xmlns="http://www.w3.org/2000/svg">
<path d="M20.849 47.5131H25.6929V34.5742H20.849V47.5131ZM33.9943 26.2291H46.5419V21.284H33.9943V26.2291ZM0 26.2291H12.8012V21.284H0V26.2291ZM25.8278 17.6497C24.415 19.0919 22.1269 19.0919 20.7141 17.6497L8.52876 5.21007L5.10357 8.70673L17.289 21.1464C18.7017 22.5886 18.7017 24.9245 17.289 26.3667L5.10357 38.8064L8.52876 42.303L20.7141 29.8634C22.1269 28.4212 24.415 28.4212 25.8278 29.8634L38.0132 42.303L41.4383 38.8064L29.253 26.3667C27.8422 24.9245 27.8422 22.5886 29.253 21.1464L41.4383 8.70673L38.0132 5.21007L25.8278 17.6497ZM20.849 12.9368H25.6929V0H20.849V12.9389V12.9368Z" fill="url(#paint0_linear_4182_14578)"/>
<defs>
<linearGradient id="paint0_linear_4182_14578" x1="24.0708" y1="0.597522" x2="24.0708" y2="48.1106" gradientUnits="userSpaceOnUse">
<stop stop-color="#FF6717"/>
<stop offset="0.07" stop-color="#FF6717"/>
<stop offset="0.2" stop-color="#FF6717"/>
<stop offset="0.34" stop-color="#FF6717"/>
<stop offset="0.47" stop-color="#FF6717"/>
<stop offset="0.61" stop-color="#FF6717"/>
<stop offset="0.74" stop-color="#FF6717"/>
<stop offset="0.87" stop-color="#FF6717"/>
<stop offset="1" stop-color="#FF6717"/>
</linearGradient>
</defs>
</svg>
